<svg width="20" height="20" viewBox="0 0 20 20" fill="none" xmlns="http://www.w3.org/2000/svg">
<path d="M10 1C5.03 1 1 5.03 1 10C1 14.97 5.03 19 10 19C14.97 19 19 14.97 19 10C19 5.03 14.97 1 10 1ZM14 10.75H13.5C11.98 10.75 10.75 11.98 10.75 13.5V14C10.75 14.41 10.41 14.75 10 14.75C9.59 14.75 9.25 14.41 9.25 14V13.5C9.25 11.98 8.02 10.75 6.5 10.75H6C5.59 10.75 5.25 10.41 5.25 10C5.25 9.59 5.59 9.25 6 9.25H6.5C8.02 9.25 9.25 8.02 9.25 6.5V6C9.25 5.59 9.59 5.25 10 5.25C10.41 5.25 10.75 5.59 10.75 6V6.5C10.75 8.02 11.98 9.25 13.5 9.25H14C14.41 9.25 14.75 9.59 14.75 10C14.75 10.41 14.41 10.75 14 10.75Z" fill="#BFBFBF"/>
</svg>
