<svg width="20" height="20" viewBox="0 0 20 20" fill="none" xmlns="http://www.w3.org/2000/svg">
<path d="M17.3124 8.71396L16.8578 9.28289C16.6955 9.48599 16.6186 9.74249 16.6206 10.0025C16.6225 10.2564 16.6996 10.5059 16.858 10.7043L17.3213 11.2844C17.7483 11.8191 17.9142 12.5317 17.654 13.1646C17.3926 13.8004 16.7691 14.1905 16.0859 14.2673L15.3581 14.349C15.103 14.3776 14.87 14.5022 14.6885 14.6837C14.5069 14.8652 14.3824 15.0982 14.3538 15.3533L14.2718 16.083C14.1952 16.7647 13.8071 17.3873 13.1734 17.65C12.5389 17.9132 11.8232 17.7471 11.2866 17.3183L10.7137 16.8606C10.5129 16.7001 10.2598 16.6231 10.0028 16.6231C9.74591 16.6231 9.49292 16.7001 9.29217 16.8604L8.71591 17.3205C8.18121 17.7475 7.46862 17.9134 6.83575 17.6533C6.19982 17.3918 5.80965 16.7682 5.73291 16.085L5.65119 15.3575C5.62254 15.1024 5.49801 14.8693 5.31648 14.6878C5.13498 14.5063 4.90194 14.3818 4.64686 14.3531L3.91693 14.2711C3.23531 14.1945 2.61276 13.8065 2.35 13.1729C2.08686 12.5384 2.25297 11.8227 2.68178 11.286L3.13951 10.7132C3.29994 10.5125 3.37698 10.2594 3.37698 10.0024C3.37698 9.74551 3.30001 9.49253 3.13971 9.2918L2.67954 8.7156C2.25253 8.18091 2.08659 7.4683 2.34679 6.83543C2.60821 6.19958 3.23176 5.80947 3.91495 5.73273L4.64269 5.651C4.89779 5.62235 5.13084 5.49784 5.31236 5.31633C5.49388 5.13482 5.61841 4.90177 5.64707 4.64668L5.72958 3.91236C5.80586 3.23352 6.19206 2.61349 6.82271 2.35097C7.45585 2.08742 8.17069 2.25268 8.70648 2.68078L9.28052 3.13944C9.4813 3.29987 9.73439 3.3769 9.9914 3.37691C10.2483 3.37691 10.5013 3.29994 10.702 3.13964L11.2783 2.67948C11.813 2.2525 12.5256 2.08658 13.1585 2.34674C13.7944 2.60816 14.1846 3.23176 14.2613 3.91502L14.343 4.64251C14.3717 4.89762 14.4962 5.13069 14.6777 5.31221C14.8592 5.49371 15.0923 5.61822 15.3473 5.64688L16.0773 5.72889C16.7589 5.80547 17.3814 6.1935 17.6442 6.82708C17.9073 7.46158 17.7412 8.17734 17.3124 8.71396Z" stroke="#BFBFBF" stroke-width="1.5"/>
<circle cx="10" cy="10" r="2" fill="#BFBFBF"/>
</svg>
