<svg width="98" height="79" viewBox="0 0 98 79" fill="none" xmlns="http://www.w3.org/2000/svg">
<path d="M78.3615 64.6259C78.3615 67.1302 77.6555 69.0084 76.2436 70.2606C74.8317 71.5127 73.2914 72.1388 71.6228 72.1388C69.9285 72.1388 68.3754 71.5127 66.9635 70.2606C65.5772 69.0084 64.8841 67.1302 64.8841 64.6259L64.7686 50.5968V6.8229C64.7686 4.8808 65.4232 3.25813 66.7324 1.95488C68.0417 0.651625 69.6718 0 71.6228 0C73.5481 0 75.1654 0.651625 76.4747 1.95488C77.7839 3.25813 78.4385 4.8808 78.4385 6.8229V50.5968L78.3615 64.6259ZM56.7206 47.3003L67.079 58.148L71.6228 62.9777L75.8971 58.378L86.4864 47.3003C87.7443 46.0226 89.3231 45.3838 91.2228 45.3838C93.1995 45.3838 94.8168 46.0226 96.0747 47.3003C97.3582 48.5525 98 50.1624 98 52.13C98 54.021 97.3197 55.6437 95.9591 56.9981L76.6287 76.8151C75.2424 78.2462 73.5738 78.9617 71.6228 78.9617C69.6718 78.9617 67.9903 78.2462 66.5784 76.8151L47.2479 56.9981C45.8874 55.6437 45.2071 54.021 45.2071 52.13C45.2071 50.1624 45.8489 48.5525 47.1324 47.3003C48.416 46.0226 50.0333 45.3838 51.9843 45.3838C53.9353 45.3838 55.5141 46.0226 56.7206 47.3003ZM33.1544 14.3741L33.2314 28.4032V72.1771C33.2314 74.1192 32.5768 75.7419 31.2676 77.0451C29.9584 78.3484 28.3282 79 26.3772 79C24.4519 79 22.8346 78.3484 21.5253 77.0451C20.2161 75.7419 19.5615 74.1192 19.5615 72.1771V28.4032L19.6385 14.3741C19.6642 11.8698 20.3701 9.99159 21.7564 8.73945C23.1683 7.4873 24.7086 6.86123 26.3772 6.86123C28.0715 6.86123 29.6118 7.4873 30.998 8.73945C32.41 9.99159 33.1287 11.8698 33.1544 14.3741ZM11.5136 31.6997C10.307 32.9774 8.72823 33.6162 6.77721 33.6162C4.80052 33.6162 3.1704 32.9901 1.88684 31.738C0.628946 30.4603 0 28.8376 0 26.87C0 24.979 0.680288 23.3563 2.04086 22.0019L21.3713 2.18486C22.7576 0.753841 24.4262 0.0383309 26.3772 0.0383309C28.3282 0.0383309 30.0097 0.753841 31.4216 2.18486L50.7521 22.0019C52.1126 23.3563 52.7929 24.979 52.7929 26.87C52.7929 28.8376 52.1511 30.4603 50.8676 31.738C49.584 32.9901 47.9667 33.6162 46.0157 33.6162C44.0904 33.6162 42.5116 32.9774 41.2794 31.6997L30.69 20.622L26.3772 16.0223L21.8719 20.852L11.5136 31.6997Z" fill="white"/>
</svg>
