<svg width="192" height="144" viewBox="0 0 192 144" fill="none" xmlns="http://www.w3.org/2000/svg">
<path d="M6.70043e-07 28.8C7.28677e-07 18.7191 7.57994e-07 13.6786 1.96188 9.82817C3.6876 6.44125 6.44125 3.6876 9.82817 1.96188C13.6786 0 18.7191 0 28.8 0H163.2C173.281 0 178.321 0 182.172 1.96188C185.559 3.6876 188.312 6.44125 190.038 9.82817C192 13.6786 192 18.7191 192 28.8V115.2C192 125.281 192 130.321 190.038 134.172C188.312 137.559 185.559 140.312 182.172 142.038C178.321 144 173.281 144 163.2 144H28.8C18.7191 144 13.6786 144 9.82817 142.038C6.44125 140.312 3.6876 137.559 1.96188 134.172C7.95593e-08 130.321 1.08876e-07 125.281 1.67511e-07 115.2L6.70043e-07 28.8Z" fill="white"/>
</svg>
