<svg width="192" height="62" viewBox="0 0 192 62" fill="none" xmlns="http://www.w3.org/2000/svg">
<path d="M53.4578 -5.57013e-07L24.2529 6.06451e-06C18.4371 7.38312e-06 15.5291 8.04243e-06 13.1497 0.665818C7.09324 2.36049 2.36048 7.09325 0.66581 13.1497C0 15.5291 0 18.4371 0 24.2529V33.2C0 43.2809 2.09045e-06 48.3214 1.96188 52.1718C3.68761 55.5587 6.44126 58.3124 9.82817 60.0381C13.6786 62 18.7191 62 28.8 62H163.2C173.281 62 178.321 62 182.172 60.0381C185.559 58.3124 188.312 55.5587 190.038 52.1718C192 48.3214 192 43.2809 192 33.2V24.0498C192 18.4235 192 15.6104 191.376 13.3035C189.706 7.12244 184.878 2.29413 178.697 0.623512C176.39 1.15633e-05 173.577 1.15633e-05 167.95 1.15633e-05H137.26C128.607 1.15633e-05 120.704 4.90967 116.87 12.6667C113.035 20.4237 105.132 25.3333 96.4792 25.3333H95.7325C86.9029 25.3333 78.7832 20.4626 74.6151 12.6786C70.4391 4.87993 62.3041 -3.8147e-06 53.4578 -5.57013e-07Z" fill="white"/>
</svg>
