<svg width="193" height="76" viewBox="0 0 193 76" fill="none" xmlns="http://www.w3.org/2000/svg">
<path d="M53.7943 3.23898e-06L24.4177 9.85352e-06C18.448 1.11977e-05 15.4632 1.18698e-05 13.0251 0.701149C7.0696 2.41386 2.41385 7.06962 0.701137 13.0251C0 15.4632 0 18.448 0 24.4178V47.2C0 57.2809 0 62.3214 1.96188 66.1718C3.6876 69.5587 6.44125 72.3124 9.82817 74.0381C13.6786 76 18.7191 76 28.8 76H164.2C174.281 76 179.321 76 183.172 74.0381C186.559 72.3124 189.312 69.5587 191.038 66.1718C193 62.3214 193 57.2809 193 47.2V24.2114C193 18.4343 193 15.5458 192.343 13.1811C190.653 7.09923 185.901 2.34696 179.819 0.657052C177.454 1.53515e-05 174.566 1.53515e-05 168.789 1.53515e-05H137.916C129.251 1.53515e-05 121.334 4.90698 117.478 12.6667C113.623 20.4264 105.706 25.3333 97.0408 25.3333H96.2002C87.3405 25.3333 79.1964 20.4681 74.9973 12.6667C70.7981 4.86528 62.6541 0 53.7943 3.23898e-06Z" fill="white"/>
</svg>
