<svg width="170" height="91" viewBox="0 0 170 91" fill="none" xmlns="http://www.w3.org/2000/svg">
<path d="M168.69 6.54928C167.54 4.28953 165.7 2.45973 163.45 1.30986C160.88 0 157.52 0 150.8 0H16.83C11.65 0.0199978 8.8 0.159982 6.55 1.30986C4.29 2.45973 2.46 4.29953 1.31 6.54928C0 9.119 0 12.4786 0 19.1979V71.7921C0 78.5114 0 81.871 1.31 84.4407L1.53 84.8607C2.69 86.9304 4.43 88.6103 6.55 89.6901L6.79 89.8101C9 90.85 11.83 90.98 16.83 91H150.8C157.31 91 160.67 91 163.21 89.8101L163.45 89.6901C165.57 88.6103 167.31 86.9304 168.47 84.8607L168.69 84.4407C170 81.871 170 78.5114 170 71.7921V19.1979C170 12.4786 170 9.119 168.69 6.54928ZM162 60.9933C149.85 60.9933 140 70.8422 140 82.9909H30C30 70.8422 20.15 60.9933 8 60.9933V29.9967C20.15 29.9967 30 20.1478 30 7.99912H140C140 20.1478 149.85 29.9967 162 29.9967V60.9933Z" fill="#66CCAC"/>
<path d="M101 45.9949C101 54.8305 93.8366 61.9932 85 61.9932C76.1634 61.9932 69 54.8305 69 45.9949C69 37.1594 76.1634 29.9967 85 29.9967C93.8366 29.9967 101 37.1594 101 45.9949Z" fill="#66CCAC"/>
</svg>
