<svg width="182" height="119" viewBox="0 0 182 119" fill="none" xmlns="http://www.w3.org/2000/svg">
<path d="M181.068 80.1538C181.108 79.9477 181.15 79.7318 181.171 79.5219C181.196 79.3433 181.201 79.1609 181.216 78.9804C181.227 78.7686 181.249 78.5488 181.25 78.3351C181.255 78.1526 181.241 77.9664 181.236 77.7821C181.227 77.5664 181.23 77.3428 181.212 77.1252C181.197 76.9389 181.173 76.7507 181.149 76.5626C181.13 76.3959 181.112 76.2293 181.084 76.0608L181.022 75.7531L168.013 9.84942C166.708 3.23592 160.287 -1.0772 153.662 0.235202L9.8814 28.5976L9.57375 28.6597C9.4131 28.6996 9.26035 28.7512 9.0997 28.7911C8.90577 28.8449 8.72357 28.8908 8.52964 28.9445C8.32398 29.0062 8.12429 29.0894 7.92651 29.1628C7.75029 29.2302 7.56425 29.2957 7.38611 29.373C7.19623 29.4581 7.00444 29.553 6.81264 29.648C6.64431 29.7271 6.47406 29.8161 6.30381 29.9051C6.12183 30.0019 5.94582 30.1203 5.77173 30.2289C5.60938 30.3296 5.44895 30.4205 5.2964 30.5231C5.1204 30.6416 4.96209 30.7736 4.7959 30.894C4.65125 31.0083 4.49871 31.1109 4.36196 31.237C4.20366 31.3691 4.05325 31.5129 3.90284 31.6567C3.76609 31.7828 3.63126 31.899 3.5024 32.0369C3.36181 32.1826 3.22911 32.34 3.0866 32.4956C2.96755 32.6353 2.84061 32.7633 2.72157 32.9031C2.58887 33.0605 2.47388 33.2316 2.34907 33.4008C2.23984 33.5425 2.12869 33.694 2.02927 33.8375C1.91428 34.0086 1.817 34.1934 1.7099 34.3762C1.61838 34.5316 1.51704 34.685 1.43533 34.8422C1.33805 35.027 1.24866 35.2234 1.16119 35.4101C1.0893 35.5693 1.00759 35.7265 0.933773 35.8955C0.854198 36.0939 0.784438 36.2942 0.714677 36.4946C0.650676 36.6655 0.588593 36.8265 0.534406 36.9994C0.474459 37.2016 0.422407 37.4156 0.370354 37.6296C0.335795 37.8062 0.273714 37.9673 0.239155 38.144C0.196916 38.3599 0.16257 38.5875 0.139958 38.8073C0.107319 38.9741 0.0746809 39.1409 0.0616695 39.3116C0.0352184 39.551 0.0303139 39.7844 0.0234907 40.0276C0.0123993 40.1885 0.00130869 40.3493 3.12262e-05 40.5121C-0.000817905 40.7769 0.0160407 41.0553 0.0348195 41.3239C0.0393019 41.4572 0.0437845 41.5906 0.0580808 41.7258C0.0930759 42.1199 0.149618 42.508 0.225789 42.8999C0.221949 42.9195 0.22003 42.9293 0.235818 42.9528L13.2446 108.856C13.3267 109.27 13.4225 109.666 13.5497 110.057C13.5934 110.198 13.6508 110.322 13.6965 110.453C13.7799 110.704 13.8633 110.954 13.9683 111.199C14.0298 111.354 14.1127 111.502 14.184 111.659C14.2849 111.872 14.376 112.084 14.4789 112.287C14.5599 112.446 14.6626 112.598 14.7554 112.749C14.862 112.933 14.9668 113.127 15.095 113.305C15.1976 113.457 15.3139 113.592 15.4165 113.744C15.5467 113.913 15.6651 114.089 15.7952 114.257C15.9096 114.401 16.0376 114.528 16.1637 114.665C16.3075 114.815 16.4396 114.974 16.5834 115.124C16.7114 115.251 16.8511 115.37 16.9889 115.499C17.1346 115.64 17.2902 115.782 17.4476 115.915C17.5874 116.034 17.7408 116.135 17.8824 116.244C18.0418 116.367 18.211 116.492 18.3802 116.617C18.5336 116.718 18.6889 116.81 18.8442 116.901C19.0172 117.006 19.1883 117.121 19.3731 117.219C19.5284 117.31 19.6974 117.384 19.8565 117.456C20.0432 117.543 20.228 117.641 20.4147 117.728C20.5836 117.802 20.7565 117.856 20.9273 117.92C21.1179 117.988 21.3163 118.068 21.5166 118.137C21.6894 118.192 21.8641 118.236 22.0487 118.282C22.2509 118.342 22.4551 118.392 22.6593 118.442C22.8359 118.477 23.0126 118.512 23.1991 118.548C23.4052 118.588 23.6112 118.629 23.831 118.651C24.0096 118.676 24.192 118.681 24.3823 118.698C24.5941 118.709 24.8139 118.731 25.0277 118.733C25.2101 118.738 25.3963 118.723 25.5806 118.718C25.7963 118.71 26.0199 118.713 26.2375 118.694C26.4238 118.68 26.612 118.655 26.8001 118.631C26.9668 118.613 27.1334 118.594 27.3019 118.566L27.6096 118.504L171.394 90.1219C171.807 90.0398 172.205 89.9342 172.605 89.8188C172.669 89.8008 172.726 89.7712 172.781 89.7513C173.108 89.6421 173.435 89.5329 173.746 89.4002C173.858 89.3507 173.959 89.2992 174.061 89.2478C174.318 89.135 174.576 89.0123 174.827 88.8779C174.952 88.8107 175.069 88.7317 175.185 88.6626C175.404 88.5322 175.633 88.4038 175.844 88.2617C175.973 88.1749 176.082 88.0842 176.202 87.9955C176.403 87.8514 176.593 87.7153 176.786 87.5596C176.907 87.461 177.021 87.3507 177.134 87.2404C177.308 87.0808 177.489 86.933 177.654 86.7715C177.767 86.6612 177.874 86.5293 177.978 86.4171C178.132 86.2537 178.286 86.0902 178.432 85.9151C178.54 85.7832 178.637 85.6495 178.735 85.5157C178.871 85.3386 179.008 85.1615 179.135 84.9825C179.234 84.8389 179.314 84.6915 179.401 84.5558C179.518 84.3749 179.637 84.1842 179.736 83.9896C179.816 83.8422 179.888 83.683 179.97 83.5258C180.069 83.3312 180.168 83.1366 180.248 82.9382C180.32 82.7791 180.374 82.6063 180.436 82.4452C180.515 82.2468 180.595 82.0484 180.655 81.8461C180.709 81.6733 180.752 81.5084 180.796 81.3336C180.856 81.1314 180.908 80.9174 180.958 80.7132C180.993 80.5366 181.027 80.3599 181.062 80.1833L181.068 80.1538Z" fill="#66CCAC"/>
<path d="M171.65 70.3228C163.383 71.9559 158.001 79.982 159.633 88.2592L37.8209 112.299C36.1878 104.032 28.1616 98.6506 19.8844 100.282L15.8889 101.069L5.63742 49.1451L9.63295 48.3575C17.9003 46.7245 23.2814 38.6983 21.6502 30.4211L143.472 6.38315C145.105 14.6505 153.131 20.0316 161.408 18.4004L165.404 17.6129L175.655 69.5372L171.66 70.3247L171.65 70.3228Z" fill="#33998D"/>
<path d="M88.2779 47.3585C81.6644 48.663 77.3513 55.0843 78.6637 61.7096C79.9682 68.3231 86.3896 72.6362 93.0148 71.3238C99.6283 70.0193 103.941 63.5979 102.629 56.9727C101.324 50.3592 94.9031 46.0461 88.2779 47.3585Z" fill="#66CCAC"/>
</svg>
