<svg width="184" height="127" viewBox="0 0 184 127" fill="none" xmlns="http://www.w3.org/2000/svg">
<path d="M163.895 121.543C164.021 121.375 164.154 121.199 164.264 121.019C164.364 120.87 164.448 120.708 164.541 120.552C164.643 120.366 164.759 120.178 164.854 119.986C164.938 119.825 165.006 119.651 165.082 119.483C165.169 119.285 165.269 119.085 165.347 118.881C165.416 118.707 165.476 118.528 165.536 118.348C165.593 118.19 165.649 118.032 165.697 117.868L165.776 117.564L182.857 52.5967C184.572 46.0776 180.68 39.393 174.146 37.68L32.4172 0.39691L32.1133 0.3184C31.9514 0.284127 31.7914 0.263855 31.6295 0.229582C31.4315 0.193248 31.2476 0.154939 31.0496 0.118605C30.8377 0.0842474 30.6217 0.0718817 30.4117 0.0515275C30.2238 0.0352104 30.0278 0.0128808 29.8338 0.00455355C29.6258 -0.00179729 29.4118 -0.000157258 29.1978 0.00148176C29.0118 -0.000831982 28.8198 0.00484276 28.6278 0.0105189C28.4218 0.0181714 28.2118 0.0478156 28.0077 0.0694715C27.8177 0.089151 27.6337 0.100842 27.4516 0.126535C27.2416 0.15618 27.0415 0.205842 26.8394 0.241501C26.6594 0.281198 26.4773 0.306892 26.2992 0.360592C26.0991 0.410254 25.901 0.47392 25.7029 0.537586C25.5248 0.591286 25.3528 0.636996 25.1766 0.704699C24.9865 0.774379 24.7984 0.858061 24.6022 0.93573C24.4341 1.00945 24.264 1.06916 24.0959 1.14288C23.9078 1.22656 23.7296 1.33026 23.5434 1.42794C23.3833 1.50767 23.2171 1.59539 23.065 1.68114C22.8868 1.78484 22.7186 1.90855 22.5424 2.02626C22.3922 2.126 22.2341 2.21974 22.0919 2.3255C21.9237 2.44922 21.7575 2.58694 21.5972 2.71667C21.463 2.82844 21.3209 2.9342 21.1807 3.05396C21.0224 3.19769 20.8722 3.34744 20.7219 3.49719C20.5897 3.62296 20.4635 3.74076 20.3393 3.87255C20.197 4.02831 20.0567 4.19807 19.9165 4.36783C19.8082 4.51165 19.682 4.62943 19.5738 4.77325C19.4415 4.94903 19.3112 5.13881 19.1948 5.32662C19.0926 5.46244 18.9904 5.59827 18.9041 5.74612C18.7758 5.94991 18.6694 6.15773 18.5571 6.37354C18.4768 6.51341 18.3966 6.65327 18.3243 6.79915C18.2079 7.03695 18.1015 7.29477 18.0011 7.5446C17.9469 7.66651 17.8927 7.78842 17.8465 7.91634C17.7058 8.28611 17.5872 8.65991 17.4846 9.04574C17.4725 9.06172 17.4665 9.0697 17.4705 9.09771L0.388862 74.065C0.282174 74.4728 0.195506 74.8707 0.138818 75.2786C0.116572 75.4245 0.114341 75.5605 0.0981087 75.6985C0.0636668 75.9604 0.0292292 76.2224 0.0167805 76.4884C0.00450054 76.6543 0.0142125 76.8244 0.00992236 76.9963C0.00752428 77.2323 -0.00286232 77.4623 0.000753086 77.6903C0.00445283 77.8683 0.0301408 78.0504 0.0478439 78.2264C0.0634863 78.4384 0.0731166 78.6585 0.110752 78.8745C0.136445 79.0566 0.182159 79.2286 0.207852 79.4107C0.251501 79.6188 0.281142 79.8288 0.324791 80.0369C0.364487 80.217 0.4242 80.3871 0.477899 80.5651C0.541565 80.7633 0.591231 80.9633 0.654897 81.1614C0.71461 81.3315 0.78833 81.4997 0.856033 81.6758C0.925712 81.8659 1.00338 82.062 1.08706 82.2502C1.16078 82.4183 1.25451 82.5765 1.33424 82.7366C1.42393 82.9167 1.52163 83.1029 1.61931 83.2891C1.71305 83.4472 1.81279 83.5974 1.91254 83.7476C2.02225 83.9178 2.12594 84.0959 2.24966 84.2641C2.34941 84.4143 2.46917 84.5545 2.58095 84.6887C2.71068 84.8489 2.83439 85.0171 2.96412 85.1774C3.08389 85.3176 3.21568 85.4418 3.34146 85.574C3.48321 85.7182 3.62695 85.8765 3.7767 86.0267C3.90849 86.1509 4.04629 86.2672 4.19208 86.3894C4.34784 86.5317 4.50962 86.666 4.67139 86.8002C4.81521 86.9085 4.95903 87.0167 5.11084 87.131C5.27862 87.2572 5.4464 87.3835 5.63421 87.4999C5.78404 87.6001 5.9459 87.6844 6.10974 87.7827C6.29557 87.885 6.48337 88.0013 6.67521 88.0956C6.83707 88.1799 7.01095 88.2482 7.17882 88.3245C7.37668 88.4108 7.57651 88.5111 7.78038 88.5895C7.95426 88.6578 8.13416 88.7181 8.31406 88.7784C8.47197 88.8346 8.62986 88.8909 8.79378 88.9392L9.09766 89.0177L150.839 126.285C151.247 126.392 151.651 126.47 152.061 126.541C152.127 126.553 152.191 126.551 152.249 126.557C152.59 126.602 152.932 126.646 153.27 126.663C153.392 126.667 153.506 126.665 153.62 126.664C153.9 126.674 154.186 126.676 154.47 126.665C154.612 126.659 154.752 126.639 154.886 126.628C155.14 126.606 155.402 126.591 155.655 126.555C155.809 126.533 155.947 126.499 156.093 126.472C156.337 126.43 156.567 126.391 156.809 126.335C156.961 126.299 157.111 126.249 157.261 126.2C157.487 126.132 157.715 126.078 157.933 126.005C158.084 125.955 158.238 125.883 158.38 125.828C158.59 125.748 158.8 125.668 159.008 125.575C159.162 125.503 159.308 125.425 159.455 125.347C159.655 125.248 159.855 125.148 160.047 125.042C160.199 124.957 160.335 124.859 160.474 124.775C160.658 124.663 160.848 124.544 161.022 124.412C161.158 124.314 161.293 124.202 161.435 124.097C161.609 123.965 161.783 123.833 161.941 123.69C162.076 123.578 162.2 123.446 162.326 123.328C162.484 123.184 162.642 123.041 162.785 122.885C162.909 122.753 163.019 122.623 163.135 122.486C163.278 122.33 163.418 122.16 163.552 121.998C163.66 121.854 163.769 121.711 163.877 121.567L163.895 121.543Z" fill="#66CCAC"/>
<path d="M159.717 108.586C151.566 106.444 143.22 111.314 141.072 119.472L20.9936 87.8958C23.1353 79.7454 18.2654 71.3991 10.107 69.2514L6.16874 68.2147L19.6251 17.0274L23.5634 18.064C31.7138 20.2058 40.06 15.3358 42.2077 7.17744L162.295 38.76C160.153 46.9104 165.023 55.2567 173.181 57.4044L177.119 58.4411L163.663 109.628L159.725 108.592L159.717 108.586Z" fill="#33998D"/>
<path d="M94.747 51.5141C88.2279 49.7991 81.5433 53.6919 79.8303 60.225C78.1153 66.7441 82.0081 73.4287 88.5412 75.1417C95.0603 76.8567 101.745 72.964 103.458 66.4308C105.173 59.9117 101.28 53.2271 94.747 51.5141Z" fill="#66CCAC"/>
</svg>
