<svg width="193" height="129" viewBox="0 0 193 129" fill="none" xmlns="http://www.w3.org/2000/svg">
<path d="M53.8659 3.20219e-06L24.4658 9.77955e-06C18.4513 1.11251e-05 15.444 1.17979e-05 12.989 0.711596C7.06283 2.42931 2.4294 7.06273 0.71168 12.9889C9.26229e-05 15.4439 8.85536e-05 18.4512 8.04151e-05 24.4657L-2.20645e-05 100.2C-3.57055e-05 110.281 -4.2526e-05 115.321 1.96184 119.172C3.68756 122.559 6.44121 125.312 9.82813 127.038C13.6785 129 18.719 129 28.7999 129H164.2C174.281 129 179.321 129 183.172 127.038C186.559 125.312 189.312 122.559 191.038 119.172C193 115.321 193 110.281 193 100.2L193 24.2566C193 18.4374 193 15.5277 192.333 13.1469C190.638 7.09275 185.907 2.36168 179.853 0.666595C177.472 1.5253e-05 174.563 1.5253e-05 168.743 1.5253e-05H137.843C129.219 1.5253e-05 121.335 4.87217 117.478 12.5854C113.621 20.2986 105.737 25.1707 97.1136 25.1707H96.1287C87.3093 25.1707 79.1983 20.34 74.9973 12.5854C70.7964 4.8307 62.6854 0 53.8659 3.20219e-06Z" fill="#F2F2F7"/>
</svg>
