<svg width="164" height="130" viewBox="0 0 164 130" fill="none" xmlns="http://www.w3.org/2000/svg">
<path d="M32.8 130C23.78 130 16.0583 126.818 9.635 120.453C3.21167 114.089 0 106.438 0 97.5V32.5C0 23.5625 3.21167 15.9115 9.635 9.54688C16.0583 3.18229 23.78 0 32.8 0H131.2C140.22 0 147.942 3.18229 154.365 9.54688C160.788 15.9115 164 23.5625 164 32.5V97.5C164 106.438 160.788 114.089 154.365 120.453C147.942 126.818 140.22 130 131.2 130H32.8ZM32.8 32.5H131.2C134.207 32.5 137.077 32.8385 139.81 33.5156C142.543 34.1927 145.14 35.276 147.6 36.7656V32.5C147.6 28.0312 145.996 24.2071 142.787 21.0275C139.578 17.8479 135.715 16.2554 131.2 16.25H32.8C28.29 16.25 24.4305 17.8425 21.2216 21.0275C18.0127 24.2125 16.4055 28.0367 16.4 32.5V36.7656C18.86 35.276 21.4567 34.1927 24.19 33.5156C26.9233 32.8385 29.7933 32.5 32.8 32.5ZM17.63 58.9062L108.855 80.8438C110.085 81.1146 111.315 81.1146 112.545 80.8438C113.775 80.5729 114.937 80.0312 116.03 79.2188L144.525 55.6563C143.022 53.625 141.108 51.9675 138.785 50.6838C136.462 49.4 133.933 48.7554 131.2 48.75H32.8C29.2467 48.75 26.1389 49.6654 23.4766 51.4963C20.8143 53.3271 18.8655 55.7971 17.63 58.9062Z" fill="black"/>
</svg>
