<svg width="20" height="20" viewBox="0 0 20 20" fill="none" xmlns="http://www.w3.org/2000/svg">
<g clip-path="url(#clip0_69_111)">
<path d="M15.0303 8.53033C15.3232 8.23744 15.3232 7.76256 15.0303 7.46967C14.7374 7.17678 14.2626 7.17678 13.9697 7.46967L14.5 8L15.0303 8.53033ZM11.5 11L10.9697 11.5303C11.2626 11.8232 11.7374 11.8232 12.0303 11.5303L11.5 11ZM9 8.5L9.53033 7.96967C9.23744 7.67678 8.76256 7.67678 8.46967 7.96967L9 8.5ZM5.46967 10.9697C5.17678 11.2626 5.17678 11.7374 5.46967 12.0303C5.76256 12.3232 6.23744 12.3232 6.53033 12.0303L6 11.5L5.46967 10.9697ZM14.5 8L13.9697 7.46967L10.9697 10.4697L11.5 11L12.0303 11.5303L15.0303 8.53033L14.5 8ZM11.5 11L12.0303 10.4697L9.53033 7.96967L9 8.5L8.46967 9.03033L10.9697 11.5303L11.5 11ZM9 8.5L8.46967 7.96967L5.46967 10.9697L6 11.5L6.53033 12.0303L9.53033 9.03033L9 8.5ZM19 10H18.25C18.25 14.5563 14.5563 18.25 10 18.25V19V19.75C15.3848 19.75 19.75 15.3848 19.75 10H19ZM10 19V18.25C5.44365 18.25 1.75 14.5563 1.75 10H1H0.25C0.25 15.3848 4.61522 19.75 10 19.75V19ZM1 10H1.75C1.75 5.44365 5.44365 1.75 10 1.75V1V0.25C4.61522 0.25 0.25 4.61522 0.25 10H1ZM10 1V1.75C14.5563 1.75 18.25 5.44365 18.25 10H19H19.75C19.75 4.61522 15.3848 0.25 10 0.25V1Z" fill="#BFBFBF"/>
</g>
<defs>
<clipPath id="clip0_69_111">
<rect width="20" height="20" fill="white"/>
</clipPath>
</defs>
</svg>
