<svg width="20" height="20" viewBox="0 0 20 20" fill="none" xmlns="http://www.w3.org/2000/svg">
<path d="M10 1C5.03 1 1 5.03 1 10C1 14.97 5.03 19 10 19C14.97 19 19 14.97 19 10C19 5.03 14.97 1 10 1ZM15.03 8.53L12.03 11.53C11.74 11.82 11.26 11.82 10.97 11.53L9 9.56L6.53 12.03C6.38 12.18 6.19 12.25 6 12.25C5.81 12.25 5.62 12.18 5.47 12.03C5.18 11.74 5.18 11.26 5.47 10.97L8.47 7.97C8.76 7.68 9.24 7.68 9.53 7.97L11.5 9.94L13.97 7.47C14.26 7.18 14.74 7.18 15.03 7.47C15.32 7.76 15.32 8.24 15.03 8.53Z" fill="#BFBFBF"/>
</svg>
