<svg width="20" height="20" viewBox="0 0 20 20" fill="none" xmlns="http://www.w3.org/2000/svg">
<path d="M5.63778 2.00517C7.0193 1.95157 8.28267 2.54111 9.27866 3.55762C9.43915 3.72131 9.59119 3.89436 9.73412 4.07601C9.79642 4.1542 9.93666 4.35306 9.99906 4.40816C10.0491 4.38031 10.229 4.11434 10.2861 4.04412C10.5138 3.75922 10.7632 3.49532 11.0316 3.25519C12.0565 2.34544 13.3318 1.88291 14.6588 2.02545C15.9103 2.16258 17.0604 2.82917 17.8574 3.87929C18.7044 4.99934 19.111 6.5448 18.9738 7.97488C18.6939 10.8944 16.1297 13.5912 14.124 15.3502C13.3984 15.9809 12.6489 16.5788 11.8773 17.1422C11.6324 17.3215 11.2178 17.6337 10.9617 17.7656C10.7089 17.8966 10.4354 17.9746 10.1557 17.9951C9.25673 18.0518 8.75116 17.6067 8.05305 17.0936C6.97018 16.3034 5.93471 15.4401 4.95284 14.5088C3.19159 12.8074 1.12197 10.3766 1.00613 7.69649C0.876656 4.70143 2.81161 2.16279 5.63778 2.00517Z" stroke="#BFBFBF" stroke-width="1.5"/>
</svg>
