<svg width="20" height="20" viewBox="0 0 20 20" fill="none" xmlns="http://www.w3.org/2000/svg">
<path d="M18.4736 8.61375L11.2836 1.51375C10.5836 0.823746 9.47357 0.823746 8.77357 1.51375L1.52357 8.60375C0.393567 9.71375 1.22357 11.6137 2.81357 11.6137V17.2437C2.81357 18.2137 3.61357 19.0037 4.59357 19.0037H5.89357C6.82357 19.0037 7.57357 18.2537 7.57357 17.3237V13.9037C7.57357 12.9737 8.32357 12.2237 9.25357 12.2237H10.7436C11.6736 12.2237 12.4236 12.9737 12.4236 13.9037V17.3237C12.4236 18.2537 13.1736 19.0037 14.1036 19.0037H15.3736C16.3536 19.0037 17.1536 18.2137 17.1536 17.2437V11.6137H17.2136C18.8036 11.6137 19.5936 9.72375 18.4736 8.61375Z" fill="#BFBFBF"/>
</svg>
