<svg width="20" height="20" viewBox="0 0 20 20" fill="none" xmlns="http://www.w3.org/2000/svg">
<path d="M17.4 11.39L16.8586 10.7115C16.6982 10.5105 16.6175 10.2587 16.6175 10.0015C16.6175 9.74251 16.6995 9.48896 16.862 9.28733L17.4 8.62C17.7967 8.12415 17.8983 7.45128 17.6659 6.85497C17.6621 6.84508 17.6608 6.83926 17.6588 6.82885C17.6567 6.81832 17.6479 6.80488 17.6436 6.79504C17.3907 6.21307 16.8446 5.8094 16.21 5.74L15.3456 5.64318C15.0972 5.61536 14.8686 5.4928 14.6933 5.31465C14.511 5.12939 14.3839 4.89619 14.355 4.63791L14.26 3.79C14.1902 3.15184 13.7824 2.60317 13.1852 2.35216C13.1818 2.35073 13.181 2.35015 13.1773 2.34987C13.166 2.34903 13.1531 2.33716 13.1425 2.33297C12.5566 2.102 11.8851 2.20395 11.39 2.6L10.7132 3.14004C10.5119 3.30072 10.2572 3.37498 9.99963 3.375C9.74246 3.37501 9.48824 3.30105 9.28702 3.1409L8.62 2.61C8.11262 2.222 7.42709 2.11113 6.83911 2.34632C6.83309 2.34873 6.83044 2.35 6.82396 2.35C6.81723 2.35 6.80678 2.35135 6.80061 2.354C6.21565 2.60584 5.80962 3.1534 5.74 3.79L5.64318 4.65444C5.61536 4.90281 5.4928 5.13139 5.31465 5.30667C5.12939 5.48895 4.89619 5.6161 4.63791 5.64503L3.79 5.74C3.15184 5.80979 2.60317 6.21763 2.35216 6.81481C2.35073 6.81822 2.35015 6.81897 2.34987 6.82266C2.34903 6.83403 2.33716 6.84692 2.33297 6.85753C2.102 7.44343 2.20395 8.11494 2.6 8.60999L3.14118 9.28819C3.30113 9.48863 3.37507 9.74211 3.375 9.99855C3.37492 10.2567 3.29984 10.5118 3.13781 10.7128L2.6 11.38C2.20332 11.8758 2.10168 12.5487 2.33408 13.145C2.33794 13.1549 2.33916 13.1607 2.34122 13.1711C2.34331 13.1817 2.35214 13.1951 2.35641 13.205C2.60932 13.7869 3.15542 14.1906 3.79 14.26L4.65444 14.3568C4.90281 14.3846 5.13139 14.5072 5.30667 14.6853C5.48895 14.8706 5.6161 15.1038 5.64503 15.3621L5.74 16.21C5.80979 16.8482 6.21763 17.3968 6.81481 17.6478C6.81822 17.6493 6.81897 17.6498 6.82267 17.6501C6.83403 17.651 6.84692 17.6628 6.85753 17.667C7.44343 17.898 8.11494 17.796 8.61 17.4L9.28819 16.8588C9.48863 16.6989 9.74211 16.6249 9.99855 16.625C10.2567 16.6251 10.5118 16.7001 10.7128 16.8622L11.38 17.4C11.8758 17.7967 12.5487 17.8983 13.145 17.6659C13.1549 17.6621 13.1607 17.6608 13.1711 17.6588C13.1817 17.6567 13.1951 17.6479 13.2049 17.6436C13.7869 17.3907 14.1906 16.8446 14.26 16.21L14.3568 15.3456C14.3846 15.0972 14.5072 14.8686 14.6853 14.6933C14.8706 14.511 15.1038 14.3839 15.3621 14.355L16.21 14.26C16.8482 14.1902 17.3968 13.7824 17.6478 13.1852C17.6493 13.1818 17.6498 13.181 17.6501 13.1773C17.651 13.166 17.6628 13.1531 17.667 13.1425C17.898 12.5566 17.796 11.8851 17.4 11.39ZM10 13.01C8.34 13.01 7 11.67 7 10.01C7 8.35 8.34 7.00999 10 7.00999C11.66 7.00999 13 8.35 13 10.01C13 11.67 11.66 13.01 10 13.01Z" fill="#BFBFBF"/>
</svg>
